<?xml version="1.0" encoding="UTF-8"?>
<!DOCTYPE svg PUBLIC "-//W3C//DTD SVG 1.1//EN" "http://www.w3.org/Graphics/SVG/1.1/DTD/svg11.dtd">
<svg xmlns="http://www.w3.org/2000/svg" version="1.1" width="48px" height="48px" style="shape-rendering:geometricPrecision; text-rendering:geometricPrecision; image-rendering:optimizeQuality; fill-rule:evenodd; clip-rule:evenodd" xmlns:xlink="http://www.w3.org/1999/xlink">
<g><path style="opacity:0.97" fill="#fefffe" d="M 20.5,5.5 C 21.6597,17.3262 21.8263,29.3262 21,41.5C 17.1667,37.6667 13.3333,33.8333 9.5,30C 6.85397,29.5026 4.1873,29.3359 1.5,29.5C 1.5,25.5 1.5,21.5 1.5,17.5C 4.1873,17.6641 6.85397,17.4974 9.5,17C 13.3705,13.2977 17.0371,9.46433 20.5,5.5 Z"/></g>
<g><path style="opacity:0.757" fill="#fefffe" d="M 26.5,15.5 C 28.3936,16.0476 30.0603,17.0476 31.5,18.5C 32.8333,17.5 34.1667,16.5 35.5,15.5C 40.2845,17.7056 40.6178,20.3723 36.5,23.5C 37.5,24.8333 38.5,26.1667 39.5,27.5C 37.2944,32.2845 34.6277,32.6178 31.5,28.5C 30.1667,29.5 28.8333,30.5 27.5,31.5C 22.7155,29.2944 22.3822,26.6277 26.5,23.5C 25.5,22.1667 24.5,20.8333 23.5,19.5C 24.5244,18.1482 25.5244,16.8149 26.5,15.5 Z"/></g>
</svg>
