<?xml version="1.0" encoding="UTF-8"?>
<!DOCTYPE svg PUBLIC "-//W3C//DTD SVG 1.1//EN" "http://www.w3.org/Graphics/SVG/1.1/DTD/svg11.dtd">
<svg xmlns="http://www.w3.org/2000/svg" version="1.1" width="48px" height="48px" style="shape-rendering:geometricPrecision; text-rendering:geometricPrecision; image-rendering:optimizeQuality; fill-rule:evenodd; clip-rule:evenodd" xmlns:xlink="http://www.w3.org/1999/xlink">
<g><path style="opacity:0.97" fill="#fefffe" d="M 20.5,5.5 C 21.6597,17.3262 21.8263,29.3262 21,41.5C 17.1667,37.6667 13.3333,33.8333 9.5,30C 6.85397,29.5026 4.1873,29.3359 1.5,29.5C 1.5,25.5 1.5,21.5 1.5,17.5C 4.1873,17.6641 6.85397,17.4974 9.5,17C 13.3705,13.2977 17.0371,9.46433 20.5,5.5 Z"/></g>
<g><path style="opacity:0.764" fill="#fefffe" d="M 37.5,6.5 C 40.8217,7.65822 42.9883,9.99155 44,13.5C 46,20.1667 46,26.8333 44,33.5C 43.089,36.5755 41.2557,38.9089 38.5,40.5C 37.1667,39.8333 36.1667,38.8333 35.5,37.5C 42.1667,28.1667 42.1667,18.8333 35.5,9.5C 36.1925,8.48224 36.8592,7.48224 37.5,6.5 Z"/></g>
<g><path style="opacity:0.731" fill="#fefffe" d="M 32.5,11.5 C 36.3311,14.5065 37.9978,18.5065 37.5,23.5C 37.9566,28.2502 36.4566,32.2502 33,35.5C 31.647,34.3147 30.4803,32.9814 29.5,31.5C 33.5,26.1667 33.5,20.8333 29.5,15.5C 30.5244,14.1482 31.5244,12.8149 32.5,11.5 Z"/></g>
<g><path style="opacity:0.719" fill="#fefffe" d="M 26.5,17.5 C 28.9311,18.6068 29.9311,20.6068 29.5,23.5C 29.4733,30.0714 27.4733,30.9048 23.5,26C 24.8333,24.3333 24.8333,22.6667 23.5,21C 24.7101,19.9609 25.7101,18.7942 26.5,17.5 Z"/></g>
</svg>
